# xmcd CD database file
#
# Track frame offsets:
#	150
#	4912
#	20997
#	39648
#	55307
#	67014
#	86101
#	111567
#	129027
#	149100
#	165997
#	186369
#	207760
#	223470
#	244351
#	279017
#
# Disc length: 3891 seconds
#
# Revision: 1
# Processed by: cddbd v1.5.2PL0 Copyright (c) Steve Scherf et al.
# Submitted via: CDex 1.51
#
DISCID=fc0f3110
DTITLE=Blue Eyes - can you blue eyes
DYEAR=1996
DGENRE=Rock
TTITLE0=Intro
TTITLE1=hard to handle
TTITLE2=wild night
TTITLE3=satisfied
TTITLE4=midnight hour
TTITLE5=mustang sally
TTITLE6=have a little faith
TTITLE7=walking by myself
TTITLE8=the river's rising
TTITLE9=guilty
TTITLE10=mary had a little lamp
TTITLE11=mothers daughter
TTITLE12=i eel good
TTITLE13=up where we belong
TTITLE14=with a little help from my friends
TTITLE15=wonderful world
EXTD=YEAR: 1996
EXTT0=
EXTT1=
EXTT2=
EXTT3=
EXTT4=
EXTT5=
EXTT6=
EXTT7=
EXTT8=
EXTT9=
EXTT10=
EXTT11=
EXTT12=
EXTT13=
EXTT14=
EXTT15=
PLAYORDER=
